<svg xmlns="http://www.w3.org/2000/svg" viewBox="0 0 23.1 28.77"><defs><style>.a{fill:#fff;}</style></defs><title>bienestarFamiliar</title><path class="a" d="M9.09,18.86h2c.08,0,.12,0,.11-.11q0-.37,0-.75,0-1,0-1.92a17.58,17.58,0,0,0-.07-2.18,2.91,2.91,0,0,0-.58-1.36,14.25,14.25,0,0,0-1-1.14c-.14-.15-.3-.29-.45-.44L5.92,7.87a2.11,2.11,0,0,0-.61-.43.65.65,0,0,0-.8.12.68.68,0,0,0-.16.59,1.58,1.58,0,0,0,.3.72L5.54,10l.83,1,.33.43a.22.22,0,1,1-.34.29c-.22-.24-.42-.49-.63-.73l-.64-.77L4.54,9.6,4,8.91a1.69,1.69,0,0,1-.25-.36,1.4,1.4,0,0,1,0-1c.29-.84.6-1.67.9-2.51.14-.39.26-.78.37-1.17a.4.4,0,0,0-.24-.53c-.19-.1-.19-.1-.14-.31a.59.59,0,0,0-.19-.63,1.67,1.67,0,0,0-.6-.3s-.06,0-.07.06L3.3,3.28l-1,2.54c-.3.76-.6,1.53-.9,2.3a2.49,2.49,0,0,0-.12,1.54,3.94,3.94,0,0,0,.44,1.08,3.85,3.85,0,0,0,.67.88c.15.14.3.3.44.46l.93,1c.19.22.38.44.56.66q.49.63,1,1.27a12.79,12.79,0,0,1,1.09,1.74,8.76,8.76,0,0,1,.38.87A3.2,3.2,0,0,1,7,18.75c0,.09,0,.11.12.11ZM19.16,2a1.76,1.76,0,0,0-.69.33.52.52,0,0,0-.17.41,1.56,1.56,0,0,0,0,.31c0,.09,0,.13-.08.16a.43.43,0,0,0-.34.47A2,2,0,0,0,18,4.1c.3.88.61,1.75.91,2.63a6.27,6.27,0,0,1,.39,1.21,1,1,0,0,1-.11.71c-.09.14-.21.26-.32.39l-.75.9-.66.78-.82,1a.42.42,0,0,1-.19.12.19.19,0,0,1-.22-.09.26.26,0,0,1,0-.29,3.08,3.08,0,0,1,.2-.27l.74-.92.82-1a5.14,5.14,0,0,0,.44-.62,1,1,0,0,0,.13-.77.62.62,0,0,0-.75-.46,1.9,1.9,0,0,0-.85.53c-.61.59-1.21,1.19-1.81,1.79L13,11.89a7.21,7.21,0,0,0-.48.54,2.9,2.9,0,0,0-.57,1,5.09,5.09,0,0,0-.16,1.13c0,.33,0,.67,0,1q0,1.57,0,3.14s0,0,0,0,0,.13.13.13h3.88c.2,0,.2,0,.22-.19h0c.06-.27.09-.55.17-.81a7.12,7.12,0,0,1,.64-1.42,16,16,0,0,1,1.35-2q.65-.82,1.33-1.62c.32-.37.65-.73,1-1.07a4.73,4.73,0,0,0,.72-.9,3.27,3.27,0,0,0,.56-2,2.15,2.15,0,0,0-.09-.49c-.1-.31-.22-.61-.34-.92L20.38,5.1l-1-2.48Zm-7.67,11,0,0c.08-.15.15-.31.24-.46a7.24,7.24,0,0,1,1-1.23l.72-.71a.18.18,0,0,0,0-.12c0-.14,0-.28,0-.42s0-.37,0-.56c0-.45,0-.9,0-1.36,0-.18,0-.35,0-.53s0-.39,0-.59,0-.4-.06-.59-.11-.52-.17-.78a4.93,4.93,0,0,0-.39-1,3.74,3.74,0,0,0-.49-.75,2.14,2.14,0,0,0-.83-.63,1.48,1.48,0,0,0-1.22,0,2.43,2.43,0,0,0-.73.58A1.67,1.67,0,0,0,9.44,4a2.77,2.77,0,0,1,1.09,1.28,6.68,6.68,0,0,1,.28.75A5.42,5.42,0,0,1,11,7.53c0,.63,0,1.26,0,1.89,0,.24,0,.48,0,.72q0,1.08,0,2.17a.27.27,0,0,0,0,.12Zm-.92-1.39v0s0-.06,0-.09c0-.46,0-.91,0-1.37q0-1.11,0-2.23c0-.14,0-.27,0-.41s0-.54-.08-.81a4.07,4.07,0,0,0-.5-1.47,2.15,2.15,0,0,0-.65-.74,1.14,1.14,0,0,0-.94-.2,1.68,1.68,0,0,0-1,.8,3.35,3.35,0,0,0-.47,1.07c-.07.31-.12.62-.17.93,0,.13,0,.25,0,.38A.49.49,0,0,0,6.81,8C8,9.14,9.13,10.3,10.3,11.45,10.38,11.53,10.48,11.6,10.57,11.67ZM13,4l0,0a5.06,5.06,0,0,1,.53,1.13,6.47,6.47,0,0,1,.32,1.35c0,.31.08.63.1.95s0,.61,0,.92,0,.79,0,1.18c0,.17,0,.33,0,.51l0,0,.52-.55,1.3-1.3L16,8.12c.16-.16.38-.29.3-.57a.89.89,0,0,1,0-.13c0-.33,0-.66-.1-1a5,5,0,0,0-.62-1.71,2.73,2.73,0,0,0-.73-.83,1.42,1.42,0,0,0-1-.27A1.53,1.53,0,0,0,13,4ZM7,26.24H7c0,.13.06.26.09.39.14.56.27,1.13.41,1.69,0,.14.07.3.22.36a.91.91,0,0,0,.31.06.31.31,0,0,0,.35-.25c.12-.41.24-.82.35-1.24s.16-.68.25-1l0,0,.06.54c0,.18,0,.37.06.55s0,.39.08.59a5,5,0,0,0,.1.54.36.36,0,0,0,.15.19.4.4,0,0,0,.49,0,.44.44,0,0,0,.13-.44c-.06-.42-.14-.84-.21-1.26s-.14-.91-.22-1.36c0-.26-.14-.49-.45-.53a.53.53,0,0,0-.65.36c-.11.37-.19.74-.27,1.11L8,27.64c-.18-.72-.36-1.42-.54-2.12a.59.59,0,0,0-.88-.4.47.47,0,0,0-.23.34c0,.22-.08.44-.12.66l-.19,1c-.05.29-.11.58-.15.86a1,1,0,0,0,0,.47.4.4,0,0,0,.64.16.75.75,0,0,0,.18-.47c0-.21.05-.42.08-.64s.06-.42.09-.63S6.93,26.46,7,26.24Zm4.56-1.69H22.88a.22.22,0,0,0,.09,0s.06,0,.07-.07a1.25,1.25,0,0,0,0-.25s0-.05-.07-.07a.27.27,0,0,0-.1,0H.26c-.25,0-.25,0-.25.25s0,.14.14.14ZM9.08,22.29h0l0,0-.52-.7L7.55,20.3a.52.52,0,0,0-.53-.2.38.38,0,0,0-.26.41q0,1.4,0,2.8a.42.42,0,0,0,.31.45.37.37,0,0,0,.45-.21.91.91,0,0,0,.07-.32c0-.51,0-1,0-1.53v-.1a4.87,4.87,0,0,1,.32.4l.77,1q.26.33.53.65a.43.43,0,0,0,.55,0,.47.47,0,0,0,.14-.38c0-.92,0-1.83,0-2.75a.9.9,0,0,0,0-.24.4.4,0,0,0-.71-.09.83.83,0,0,0-.08.32c0,.47,0,.94,0,1.41ZM10.94,2.86a1.42,1.42,0,0,0,1.43-1.41,1.43,1.43,0,0,0-2.86-.06A1.42,1.42,0,0,0,10.94,2.86ZM14,20l-.32,0a1.21,1.21,0,0,0-.65.3,1.1,1.1,0,0,0-.33,1,.71.71,0,0,0,.24.43,1.67,1.67,0,0,0,.57.3,6,6,0,0,1,.61.22.35.35,0,0,1,0,.62.56.56,0,0,1-.42,0c-.2,0-.39-.1-.59-.15a.45.45,0,0,0-.43.13.39.39,0,0,0,.13.57,1.84,1.84,0,0,0,1,.26,1.54,1.54,0,0,0,.32,0,1.31,1.31,0,0,0,.54-.21,1.1,1.1,0,0,0,.49-.78A1,1,0,0,0,15,22a1.37,1.37,0,0,0-.71-.49l-.57-.2a.26.26,0,0,1-.13-.44.39.39,0,0,1,.38-.12l.53.12a.37.37,0,0,0,.43-.29.41.41,0,0,0-.19-.4A1.36,1.36,0,0,0,14,20Zm-8.79.86c.29,0,.56,0,.84,0a.37.37,0,0,0,.35-.57A.4.4,0,0,0,6,20.14H4.79a.39.39,0,0,0-.44.44q0,1.37,0,2.75c0,.25.06.32.29.39a.84.84,0,0,0,.24,0h1a1.34,1.34,0,0,0,.36-.06.36.36,0,0,0,.13-.58A.5.5,0,0,0,6,23h-.8V22.3h.69a.74.74,0,0,0,.28-.07.35.35,0,0,0,.08-.54.48.48,0,0,0-.35-.14H5.18Zm6.06,0h.43l.41,0a.37.37,0,0,0,.34-.57.4.4,0,0,0-.38-.18h-1.2a.4.4,0,0,0-.45.44c0,.92,0,1.84,0,2.76a.33.33,0,0,0,.26.36,1.48,1.48,0,0,0,.26,0h1a1.31,1.31,0,0,0,.35-.06.36.36,0,0,0,.14-.58A.51.51,0,0,0,12,23h-.8v-.65h.69a.74.74,0,0,0,.28-.07.35.35,0,0,0,.08-.54.48.48,0,0,0-.35-.14h-.71ZM15.25,2a1.3,1.3,0,1,0-2.6,0,1.3,1.3,0,0,0,2.6,0ZM.9,27.27H1c.23,0,.45,0,.68,0A.34.34,0,0,0,2,26.91a.32.32,0,0,0-.25-.37,1.06,1.06,0,0,0-.32,0H.9v-.63h.17l.76,0a.33.33,0,0,0,.29-.25.34.34,0,0,0-.15-.4,1,1,0,0,0-.38-.1c-.37,0-.74,0-1.12,0a.39.39,0,0,0-.42.44q0,1.35,0,2.7a.68.68,0,0,0,0,.19.37.37,0,0,0,.39.31.36.36,0,0,0,.38-.32,3.17,3.17,0,0,0,0-.46C.9,27.74.9,27.51.9,27.27Zm15.87-6.34.49,0a.39.39,0,0,0,.39-.32.36.36,0,0,0-.31-.42l-.17,0H15.51a.81.81,0,0,0-.24,0,.33.33,0,0,0-.22.32.31.31,0,0,0,.19.33,2.32,2.32,0,0,0,.43.08,2.22,2.22,0,0,0,.28,0V21q0,1.12,0,2.25a.8.8,0,0,0,0,.19.37.37,0,0,0,.43.31.34.34,0,0,0,.34-.32,1.72,1.72,0,0,0,0-.33c0-.7,0-1.4,0-2.09Zm-3.35,7v-.12c0-.71,0-1.42,0-2.13a1.62,1.62,0,0,0-.06-.39.32.32,0,0,0-.29-.24.37.37,0,0,0-.41.18.68.68,0,0,0-.07.29c0,.91,0,1.83,0,2.74a.38.38,0,0,0,.43.43h1.22a.74.74,0,0,0,.27-.06.36.36,0,0,0,0-.63.8.8,0,0,0-.27-.06ZM9.68,3A1.09,1.09,0,1,0,7.51,3,1.09,1.09,0,0,0,9.68,3ZM3,21.94c0,.42,0,.84,0,1.26a1.4,1.4,0,0,0,0,.26.38.38,0,0,0,.32.33.37.37,0,0,0,.43-.22.94.94,0,0,0,.07-.33q0-1.27,0-2.53a1.54,1.54,0,0,0,0-.33.4.4,0,0,0-.65-.19.52.52,0,0,0-.15.4C3,21,3,21.48,3,21.94Zm13.07,5c0-.46,0-.92,0-1.37a.43.43,0,0,0-.31-.47.37.37,0,0,0-.45.21,1,1,0,0,0-.06.33c0,.38,0,.76,0,1.14,0,.54,0,1.08,0,1.62a.37.37,0,0,0,.24.36.4.4,0,0,0,.47-.11.52.52,0,0,0,.11-.34C16.07,27.81,16.07,27.35,16.07,26.89Zm-5.28,0c0,.45,0,.91,0,1.36a.81.81,0,0,0,0,.24.35.35,0,0,0,.34.25.34.34,0,0,0,.37-.19,1.3,1.3,0,0,0,.08-.43c0-.82,0-1.63,0-2.45a1.51,1.51,0,0,0-.06-.37.34.34,0,0,0-.32-.26.36.36,0,0,0-.41.23,1.2,1.2,0,0,0-.05.26C10.79,26,10.79,26.44,10.79,26.89Z"/><path class="a" d="M9.09,18.86h-2c-.09,0-.12,0-.12-.11a3.2,3.2,0,0,0-.24-1.09,8.76,8.76,0,0,0-.38-.87,12.79,12.79,0,0,0-1.09-1.74q-.47-.64-1-1.27c-.18-.23-.37-.45-.56-.66l-.93-1c-.14-.16-.28-.31-.44-.46a3.85,3.85,0,0,1-.67-.88,3.94,3.94,0,0,1-.44-1.08,2.49,2.49,0,0,1,.12-1.54c.31-.76.6-1.53.9-2.3l1-2.54.47-1.17s.06-.06.07-.06a1.67,1.67,0,0,1,.6.3A.59.59,0,0,1,4.64,3c0,.21,0,.21.14.31A.4.4,0,0,1,5,3.82c-.1.4-.23.79-.37,1.17-.29.84-.61,1.67-.9,2.51a1.4,1.4,0,0,0,0,1A1.69,1.69,0,0,0,4,8.91l.57.69.55.65.64.77c.21.25.42.49.63.73a.22.22,0,1,0,.34-.29L6.37,11l-.83-1-.88-1.1a1.58,1.58,0,0,1-.3-.72.68.68,0,0,1,.16-.59.65.65,0,0,1,.8-.12,2.11,2.11,0,0,1,.61.43L9,11c.15.15.31.28.45.44a14.25,14.25,0,0,1,1,1.14,2.91,2.91,0,0,1,.58,1.36,17.58,17.58,0,0,1,.07,2.18q0,1,0,1.92,0,.37,0,.75c0,.09,0,.11-.11.11Z"/><path class="a" d="M19.16,2l.23.57,1,2.48.94,2.38c.12.3.24.61.34.92a2.15,2.15,0,0,1,.09.49,3.27,3.27,0,0,1-.56,2,4.73,4.73,0,0,1-.72.9c-.34.35-.68.7-1,1.07q-.68.8-1.33,1.62a16,16,0,0,0-1.35,2,7.12,7.12,0,0,0-.64,1.42c-.08.26-.12.54-.17.81h0c0,.19,0,.19-.22.19H11.88c-.13,0-.13,0-.13-.13s0,0,0,0q0-1.57,0-3.14c0-.33,0-.67,0-1A5.09,5.09,0,0,1,12,13.44a2.9,2.9,0,0,1,.57-1,7.21,7.21,0,0,1,.48-.54l2.16-2.18c.6-.6,1.2-1.2,1.81-1.79a1.9,1.9,0,0,1,.85-.53.62.62,0,0,1,.75.46,1,1,0,0,1-.13.77,5.14,5.14,0,0,1-.44.62l-.82,1-.74.92a3.08,3.08,0,0,0-.2.27.26.26,0,0,0,0,.29.19.19,0,0,0,.22.09.42.42,0,0,0,.19-.12l.82-1,.66-.78.75-.9c.11-.13.22-.25.32-.39a1,1,0,0,0,.11-.71,6.27,6.27,0,0,0-.39-1.21C18.61,5.85,18.3,5,18,4.1a2,2,0,0,1-.09-.38.43.43,0,0,1,.34-.47c.1,0,.11-.07.08-.16a1.56,1.56,0,0,1,0-.31.52.52,0,0,1,.17-.41A1.76,1.76,0,0,1,19.16,2Z"/><path class="a" d="M11.48,13.06l-.36-.63a.27.27,0,0,1,0-.12q0-1.08,0-2.17c0-.24,0-.48,0-.72,0-.63,0-1.26,0-1.89a5.42,5.42,0,0,0-.24-1.45,6.68,6.68,0,0,0-.28-.75A2.77,2.77,0,0,0,9.44,4a1.67,1.67,0,0,1,.11-.15,2.43,2.43,0,0,1,.73-.58,1.48,1.48,0,0,1,1.22,0,2.14,2.14,0,0,1,.83.63,3.74,3.74,0,0,1,.49.75,4.93,4.93,0,0,1,.39,1c.06.26.13.52.17.78s0,.39.06.59,0,.39,0,.59,0,.35,0,.53c0,.45,0,.9,0,1.36q0,.28,0,.56c0,.14,0,.28,0,.42a.18.18,0,0,1,0,.12l-.72.71a7.24,7.24,0,0,0-1,1.23c-.09.14-.16.3-.24.46Z"/><path class="a" d="M10.57,11.67c-.09-.07-.19-.14-.27-.22C9.13,10.3,8,9.14,6.81,8a.49.49,0,0,1-.14-.44c0-.13,0-.26,0-.38.05-.31.1-.62.17-.93a3.35,3.35,0,0,1,.47-1.07,1.68,1.68,0,0,1,1-.8,1.14,1.14,0,0,1,.94.2,2.15,2.15,0,0,1,.65.74,4.07,4.07,0,0,1,.5,1.47c0,.27.06.54.08.81s0,.27,0,.41q0,1.11,0,2.23c0,.46,0,.91,0,1.37,0,0,0,.06,0,.09Z"/><path class="a" d="M13,4a1.53,1.53,0,0,1,.76-.34,1.42,1.42,0,0,1,1,.27,2.73,2.73,0,0,1,.73.83,5,5,0,0,1,.62,1.71c.06.32.07.65.1,1a.89.89,0,0,0,0,.13c.07.28-.14.41-.3.57l-.08.07-1.3,1.3-.52.55,0,0c0-.17,0-.34,0-.51q0-.59,0-1.18c0-.31,0-.61,0-.92s-.06-.63-.1-.95a6.47,6.47,0,0,0-.32-1.35A5.06,5.06,0,0,0,13,4Z"/><path class="a" d="M7,26.24c0,.22-.05.44-.09.66s-.06.42-.09.63-.05.42-.08.64a.75.75,0,0,1-.18.47.4.4,0,0,1-.64-.16,1,1,0,0,1,0-.47c0-.29.1-.58.15-.86l.19-1c0-.22.07-.44.12-.66a.47.47,0,0,1,.23-.34.59.59,0,0,1,.88.4c.17.7.35,1.4.54,2.12l.26-1.11c.09-.37.17-.74.27-1.11a.53.53,0,0,1,.65-.36c.3,0,.4.27.45.53.08.45.14.91.22,1.36s.15.84.21,1.26a.44.44,0,0,1-.13.44.4.4,0,0,1-.49,0,.36.36,0,0,1-.15-.19A5,5,0,0,1,9.2,28c0-.2-.05-.39-.08-.59s0-.37-.06-.55L9,26.27l0,0c-.08.35-.16.69-.25,1s-.23.83-.35,1.24a.31.31,0,0,1-.35.25.91.91,0,0,1-.31-.06c-.15-.06-.19-.22-.22-.36-.14-.56-.27-1.13-.41-1.69,0-.13-.06-.26-.09-.39Z"/><path class="a" d="M11.52,24.55H.15c-.14,0-.14,0-.14-.14s0-.25.25-.25h22.6a.27.27,0,0,1,.1,0s.07,0,.07.07a1.25,1.25,0,0,1,0,.25s0,.05-.07.07a.22.22,0,0,1-.09,0Z"/><path class="a" d="M9.08,22.29V22c0-.47,0-.94,0-1.41a.83.83,0,0,1,.08-.32.4.4,0,0,1,.71.09.9.9,0,0,1,0,.24c0,.92,0,1.83,0,2.75a.47.47,0,0,1-.14.38.43.43,0,0,1-.55,0q-.27-.32-.53-.65l-.77-1a4.87,4.87,0,0,0-.32-.4v.1c0,.51,0,1,0,1.53a.91.91,0,0,1-.07.32.37.37,0,0,1-.45.21.42.42,0,0,1-.31-.45q0-1.4,0-2.8A.38.38,0,0,1,7,20.11a.52.52,0,0,1,.53.2l.95,1.26.52.7,0,0Z"/><path class="a" d="M10.94,2.86A1.42,1.42,0,0,1,9.51,1.39a1.43,1.43,0,0,1,2.86.06A1.42,1.42,0,0,1,10.94,2.86Z"/><path class="a" d="M14,20a1.36,1.36,0,0,1,.79.2.41.41,0,0,1,.19.4.37.37,0,0,1-.43.29L14,20.81a.39.39,0,0,0-.38.12.26.26,0,0,0,.13.44l.57.2A1.37,1.37,0,0,1,15,22a1,1,0,0,1,.15.76,1.1,1.1,0,0,1-.49.78,1.31,1.31,0,0,1-.54.21,1.54,1.54,0,0,1-.32,0,1.84,1.84,0,0,1-1-.26A.39.39,0,0,1,12.7,23a.45.45,0,0,1,.43-.13c.2.05.39.12.59.15a.56.56,0,0,0,.42,0,.35.35,0,0,0,0-.62,6,6,0,0,0-.61-.22,1.67,1.67,0,0,1-.57-.3.71.71,0,0,1-.24-.43,1.1,1.1,0,0,1,.33-1,1.21,1.21,0,0,1,.65-.3Z"/><path class="a" d="M5.18,20.9v.64H5.9a.48.48,0,0,1,.35.14.35.35,0,0,1-.08.54.74.74,0,0,1-.28.07H5.19V23H6a.5.5,0,0,1,.38.14.36.36,0,0,1-.13.58,1.34,1.34,0,0,1-.36.06h-1a.84.84,0,0,1-.24,0c-.23-.07-.29-.14-.29-.39q0-1.37,0-2.75a.39.39,0,0,1,.44-.44H6a.4.4,0,0,1,.38.18.37.37,0,0,1-.35.57C5.75,20.91,5.47,20.9,5.18,20.9Z"/><path class="a" d="M11.24,20.92v.63H12a.48.48,0,0,1,.35.14.35.35,0,0,1-.08.54.74.74,0,0,1-.28.07h-.69V23H12a.51.51,0,0,1,.38.14.36.36,0,0,1-.14.58,1.31,1.31,0,0,1-.35.06h-1a1.48,1.48,0,0,1-.26,0,.33.33,0,0,1-.26-.36c0-.92,0-1.84,0-2.76a.4.4,0,0,1,.45-.44H12a.4.4,0,0,1,.38.18.37.37,0,0,1-.34.57l-.41,0Z"/><path class="a" d="M15.25,2a1.3,1.3,0,0,1-2.6,0,1.3,1.3,0,1,1,2.6,0Z"/><path class="a" d="M.9,27.27c0,.24,0,.47,0,.7a3.17,3.17,0,0,1,0,.46.36.36,0,0,1-.38.32.37.37,0,0,1-.39-.31.68.68,0,0,1,0-.19q0-1.35,0-2.7a.39.39,0,0,1,.42-.44c.37,0,.74,0,1.12,0a1,1,0,0,1,.38.1.34.34,0,0,1,.15.4.33.33,0,0,1-.29.25l-.76,0H.9v.63h.57a1.06,1.06,0,0,1,.32,0,.32.32,0,0,1,.25.37.34.34,0,0,1-.33.33c-.22,0-.45,0-.68,0Z"/><path class="a" d="M16.77,20.93V21c0,.7,0,1.4,0,2.09a1.72,1.72,0,0,1,0,.33.34.34,0,0,1-.34.32.37.37,0,0,1-.43-.31.8.8,0,0,1,0-.19q0-1.12,0-2.25v-.12a2.22,2.22,0,0,1-.28,0,2.32,2.32,0,0,1-.43-.08.31.31,0,0,1-.19-.33.33.33,0,0,1,.22-.32.81.81,0,0,1,.24,0h1.65l.17,0a.36.36,0,0,1,.31.42.39.39,0,0,1-.39.32Z"/><path class="a" d="M13.42,27.93h.8a.8.8,0,0,1,.27.06.36.36,0,0,1,0,.63.74.74,0,0,1-.27.06H13a.38.38,0,0,1-.43-.43c0-.91,0-1.83,0-2.74a.68.68,0,0,1,.07-.29.37.37,0,0,1,.41-.18.32.32,0,0,1,.29.24,1.62,1.62,0,0,1,.06.39c0,.71,0,1.42,0,2.13Z"/><path class="a" d="M9.68,3A1.09,1.09,0,0,1,7.51,3,1.09,1.09,0,1,1,9.68,3Z"/><path class="a" d="M3,21.94c0-.45,0-.91,0-1.36a.52.52,0,0,1,.15-.4.4.4,0,0,1,.65.19,1.54,1.54,0,0,1,0,.33q0,1.27,0,2.53a.94.94,0,0,1-.07.33.37.37,0,0,1-.43.22A.38.38,0,0,1,3,23.45a1.4,1.4,0,0,1,0-.26C3,22.78,3,22.36,3,21.94Z"/><path class="a" d="M16.07,26.89c0,.46,0,.92,0,1.37a.52.52,0,0,1-.11.34.4.4,0,0,1-.47.11.37.37,0,0,1-.24-.36c0-.54,0-1.08,0-1.62,0-.38,0-.76,0-1.14a1,1,0,0,1,.06-.33.37.37,0,0,1,.45-.21.43.43,0,0,1,.31.47C16.07,26,16.07,26.44,16.07,26.89Z"/><path class="a" d="M10.79,26.89c0-.45,0-.9,0-1.35a1.2,1.2,0,0,1,.05-.26.36.36,0,0,1,.41-.23.34.34,0,0,1,.32.26,1.51,1.51,0,0,1,.06.37c0,.82,0,1.63,0,2.45a1.3,1.3,0,0,1-.08.43.34.34,0,0,1-.37.19.35.35,0,0,1-.34-.25.81.81,0,0,1,0-.24C10.79,27.8,10.79,27.34,10.79,26.89Z"/><path class="a" d="M2,21.72c.13.08.26.15.37.23a.69.69,0,0,1,.28.52,1.31,1.31,0,0,1-.07.62,1,1,0,0,1-.66.57,3.14,3.14,0,0,1-1,.08c-.19,0-.39,0-.58,0S0,23.57,0,23.28c0-.85,0-1.7,0-2.55a1.79,1.79,0,0,1,0-.25.36.36,0,0,1,.39-.34,9.37,9.37,0,0,1,1.06,0,.89.89,0,0,1,.73,1.42.79.79,0,0,1-.16.12ZM.84,22.2V23c.22,0,.43,0,.64-.06a.34.34,0,0,0,.29-.38.32.32,0,0,0-.28-.34C1.28,22.23,1.07,22.22.84,22.2Zm0-.68h.34a.57.57,0,0,0,.21-.06.29.29,0,0,0,.17-.3.3.3,0,0,0-.18-.27,1.24,1.24,0,0,0-.54-.06Z"/><path class="a" d="M22.18,22.23l.08.1c.23.26.46.51.68.78a.47.47,0,0,1,.07.49.4.4,0,0,1-.62.1c-.2-.22-.38-.45-.57-.68l-.54-.68s0,.07,0,.1c0,.29,0,.57,0,.86a.52.52,0,0,1-.14.38.39.39,0,0,1-.38.09.34.34,0,0,1-.28-.27,1.54,1.54,0,0,1,0-.33q0-1.25,0-2.49a.89.89,0,0,1,0-.3.37.37,0,0,1,.36-.23,10.09,10.09,0,0,1,1,0,1.14,1.14,0,0,1,1,.63A1,1,0,0,1,22.74,22,1,1,0,0,1,22.18,22.23Zm-.91-.46c.21,0,.4,0,.59-.06a.34.34,0,0,0,.28-.32A.39.39,0,0,0,22,21a1.46,1.46,0,0,0-.69-.08Z"/><path class="a" d="M17.1,23.27c0-.09.08-.27.14-.44l.4-1.08c.16-.44.31-.88.5-1.31a.6.6,0,0,1,1-.17,1,1,0,0,1,.18.32c.19.52.37,1,.55,1.56l.37,1.06a.44.44,0,0,1,0,.42.33.33,0,0,1-.25.15.43.43,0,0,1-.52-.33,2.89,2.89,0,0,1-.1-.32c0-.06,0-.07-.08-.07H18.07a.11.11,0,0,0-.08.06c-.06.14-.1.29-.16.43a.39.39,0,0,1-.56.18C17.16,23.67,17.1,23.55,17.1,23.27Zm1.16-1h.82L18.69,21h0Z"/><path class="a" d="M18.93,28H17.69c-.06,0-.07,0-.08.07a5.19,5.19,0,0,1-.19.48.33.33,0,0,1-.38.16.33.33,0,0,1-.3-.26.74.74,0,0,1,0-.36c.28-.77.56-1.54.85-2.31.05-.14.11-.29.17-.42a.56.56,0,0,1,.48-.34.57.57,0,0,1,.61.33,6.19,6.19,0,0,1,.24.62l.76,2.16a.49.49,0,0,1,0,.41.42.42,0,0,1-.71,0Zm-1.06-.78h.82L18.3,26Z"/><path class="a" d="M23.1,28.51c-.17.35-.55.32-.79,0l-.58-.73-.39-.48s0,.06,0,.09c0,.3,0,.6,0,.91a.42.42,0,0,1-.2.39.4.4,0,0,1-.61-.36c0-.89,0-1.78,0-2.67a1.05,1.05,0,0,1,0-.29.35.35,0,0,1,.35-.26l.69,0a2.48,2.48,0,0,1,.69.08,1.05,1.05,0,0,1,.82,1,1,1,0,0,1-.28.75,1.05,1.05,0,0,1-.56.27l.4.44.38.46a1,1,0,0,1,.08.15Zm-1.77-1.79h.38l.15,0a.44.44,0,0,0,.34-.32.4.4,0,0,0-.22-.46,1.71,1.71,0,0,0-.65-.06Z"/><path class="a" d="M3.23,28c-.06.17-.12.33-.19.49a.39.39,0,0,1-.66.08.51.51,0,0,1,0-.51c.16-.43.32-.86.48-1.29s.34-.94.53-1.4a.6.6,0,0,1,.94-.23.78.78,0,0,1,.24.39l.68,2c.06.19.14.37.2.56a1.72,1.72,0,0,1,.06.33.34.34,0,0,1-.31.34.42.42,0,0,1-.5-.33L4.53,28ZM3.89,26l-.43,1.28h.82Z"/></svg>