<svg xmlns="http://www.w3.org/2000/svg" viewBox="0 0 31.71 22.94"><defs><style>.a{fill:#fff;}</style></defs><title>corponarino</title><path class="a" d="M17.28,22.94h-6.7L.8,13.16S0,13,0,11.4.82,9.48.82,9.48L10.3,0h7L10.75,6.53S6.31,10.36,6.31,11s3.72,4.21,4.46,5C13.62,19.23,17.28,22.94,17.28,22.94Z"/><path class="a" d="M7.84,11.29H13.9l3.38-3.38s1.07-1.25,1.85-1.25S21.2,7.8,21.2,7.8l3.46,3.49h7.05L21,1s-.61-1-1.5-1A2.09,2.09,0,0,0,18,.86Z"/><path class="a" d="M18.25,22.94V18H15.93s-1.53-.36-1.53-1.6,1.39-1.92,1.39-1.92a2.44,2.44,0,0,1,.53-1.92c.75-.89,1.07-.64,1.07-.64s-.11-1.14.32-1.53a2.41,2.41,0,0,1,.53-.43,1.14,1.14,0,0,1,1.14-1.18A1.35,1.35,0,0,1,20.7,9.9a1.41,1.41,0,0,1,.81.68,4.55,4.55,0,0,1,.26,1.32,1.34,1.34,0,0,1,.89.84,7.31,7.31,0,0,1,.18,1.58,1.78,1.78,0,0,1,1.07,1.85,2,2,0,0,1-1.46,1.89l-2.32,0V22.3l11.15,0v.61Z"/><rect class="a" x="20.6" y="21.2" width="10.69" height="0.71"/></svg>