<svg xmlns="http://www.w3.org/2000/svg" viewBox="0 0 28.16 25.24"><defs><style>.a{fill:#fff;}</style></defs><title>dps</title><path class="a" d="M0,11.09A14.27,14.27,0,0,1,4.71.48,2.19,2.19,0,0,1,6.38,0C13,1.41,17.85,8.63,16.89,15.68A13.47,13.47,0,0,1,12,24.86a2.12,2.12,0,0,1-1.68.32C4.73,23.47,1.46,19.6.25,13.91A11.17,11.17,0,0,1,0,12.51C0,12,0,11.56,0,11.09Z"/><path class="a" d="M27.53,7.22c2.1,6.1-1.13,14.4-8.13,17C16.23,19.42,21.45,8.41,27.53,7.22Z"/><path class="a" d="M22.18,4.72a2.33,2.33,0,0,1-2.35,2.42,2.45,2.45,0,0,1-2.54-2.4,2.44,2.44,0,0,1,2.46-2.36A2.34,2.34,0,0,1,22.18,4.72Z"/></svg>