<svg xmlns="http://www.w3.org/2000/svg" viewBox="0 0 27.12 26.31"><defs><style>.a{fill:#fff;}</style></defs><title>sena</title><circle class="a" cx="13.56" cy="3" r="3"/><path class="a" d="M4.08,7.87a.4.4,0,0,0-.29-.27,1.71,1.71,0,0,0-.53-.07c-.45,0-.65.08-.65.22,0,.59,3.59.22,3.59,1.66,0,.91-1.2,1.36-2.92,1.36S.56,10.16.51,9.45h2a.51.51,0,0,0,.34.31,1.66,1.66,0,0,0,.58.1c.51,0,.85-.1.85-.29C4.24,9,.65,9.38.65,7.88.65,7,1.8,6.62,3.36,6.62c1.73,0,2.52.56,2.67,1.25Z"/><path class="a" d="M7.14,10.66V6.73h5.09v.92h-3v.56h2.57v.92H9.19v.62h3.16v.92Z"/><path class="a" d="M17.48,8.87,17.4,8V6.73h2v3.93H17.45L15.22,8.52l.08.9v1.25h-2V6.73h1.92Z"/><path class="a" d="M20.06,10.66l2.24-3.93h2.08l2.24,3.93h-2l-.24-.52h-2l-.23.52Zm3.26-2.75-.63,1.41H24Z"/><polygon class="a" points="27.06 11.52 14.56 11.52 21.84 24.45 23.44 23.05 17.62 13.32 27.12 13.3 27.06 11.52"/><polygon class="a" points="0.06 11.52 12.56 11.52 5.28 24.45 3.68 23.05 9.5 13.32 0 13.3 0.06 11.52"/><polygon class="a" points="6.68 25.48 13.5 13.71 20.52 25.37 18.67 26.2 13.66 17.25 8.32 26.31 6.68 25.48"/></svg>